<?xml version="1.0" standalone="no"?>
<!DOCTYPE svg PUBLIC "-//W3C//DTD SVG 20010904//EN"
 "http://www.w3.org/TR/2001/REC-SVG-20010904/DTD/svg10.dtd">
<svg version="1.0" xmlns="http://www.w3.org/2000/svg"
 width="1280.000000pt" height="854.000000pt" viewBox="0 0 1280.000000 854.000000"
 preserveAspectRatio="xMidYMid meet">
<metadata>
Created by potrace 1.15, written by Peter Selinger 2001-2017
</metadata>
<g transform="translate(0.000000,854.000000) scale(0.100000,-0.100000)"
fill="#000000" stroke="none">
<path d="M1800 7178 c-80 -41 -84 -59 -89 -321 -2 -125 0 -247 3 -271 4 -24
27 -76 51 -117 61 -102 60 -128 -5 -175 -78 -56 -82 -70 -75 -242 9 -195 48
-373 107 -492 57 -115 201 -303 299 -391 86 -78 114 -118 103 -151 -3 -11 -51
-70 -107 -130 -80 -88 -113 -116 -166 -143 -59 -30 -200 -120 -321 -206 -78
-55 -164 -90 -262 -105 -101 -17 -159 -43 -192 -87 -30 -41 -32 -134 -6 -338
12 -96 26 -259 30 -364 12 -259 21 -286 124 -344 39 -21 63 -44 82 -76 44 -77
80 -85 285 -70 121 9 196 -4 363 -62 163 -57 262 -112 363 -204 30 -27 73 -54
100 -63 89 -29 238 -57 343 -63 89 -5 118 -2 195 17 150 38 203 27 322 -67 69
-54 197 -117 271 -132 67 -14 271 -14 345 -1 73 14 93 3 108 -55 20 -81 90
-121 294 -171 55 -13 108 -24 118 -24 10 0 29 -11 43 -25 22 -22 24 -30 18
-77 -18 -142 -184 -471 -345 -685 -90 -119 -131 -205 -136 -282 -3 -43 1 -75
9 -91 33 -61 157 -95 338 -94 98 1 126 5 190 28 154 55 260 139 330 262 57 99
106 152 171 185 81 41 106 69 119 137 64 323 90 398 226 648 102 186 146 256
178 282 14 10 78 35 143 53 108 31 129 34 253 34 162 0 248 -18 510 -105 97
-32 242 -72 323 -90 81 -17 168 -38 194 -46 119 -38 429 -24 728 33 205 39
629 148 749 193 218 81 391 184 508 302 78 79 95 83 172 39 79 -46 133 -97
206 -197 38 -50 98 -125 135 -165 94 -103 182 -240 194 -303 7 -33 8 -90 2
-161 -15 -186 -66 -292 -296 -610 -85 -118 -114 -185 -126 -296 -14 -121 -6
-170 33 -215 58 -66 97 -79 233 -78 261 1 473 83 536 206 11 21 34 78 51 126
16 48 43 112 58 142 27 53 114 247 161 360 13 30 53 107 89 170 107 187 199
384 231 498 38 130 63 181 130 263 28 35 61 84 72 109 26 57 34 184 18 284 -9
53 -9 80 -1 101 6 16 66 85 133 155 117 120 192 221 310 417 92 152 139 296
172 526 9 62 27 165 42 230 23 108 25 132 21 290 l-5 172 -52 158 c-28 87 -65
227 -82 310 -16 84 -34 169 -40 190 -5 21 -7 47 -4 57 3 11 43 48 88 84 101
79 130 110 197 210 77 116 110 193 126 299 8 50 26 136 39 189 43 166 32 235
-46 302 -117 101 -232 120 -403 67 -135 -43 -372 -71 -586 -71 -135 0 -202 6
-361 30 -215 34 -592 125 -824 200 -356 115 -454 120 -542 30 -38 -39 -67
-111 -93 -228 -10 -45 -24 -89 -30 -97 -19 -23 -99 -18 -176 11 -100 37 -201
41 -419 15 -573 -68 -938 -84 -1750 -79 -320 2 -478 -2 -665 -15 -292 -21
-299 -21 -465 -55 -116 -23 -154 -26 -361 -27 l-230 0 -95 -46 c-93 -46 -265
-155 -426 -271 -94 -67 -240 -140 -328 -163 -123 -32 -242 -15 -365 52 -160
87 -637 383 -688 426 -67 57 -172 109 -417 207 -203 80 -204 81 -390 208 -163
112 -219 139 -305 147 -56 6 -71 3 -110 -17z m9400 -701 c103 -16 127 -28 146
-73 22 -52 -1 -98 -63 -127 -41 -19 -65 -22 -168 -22 -140 1 -202 21 -229 74
-23 43 -20 103 5 135 20 25 24 26 122 26 56 0 140 -6 187 -13z"/>
</g>
</svg>
