<svg fill="none" height="16" viewBox="0 0 16 16" width="16" xmlns="http://www.w3.org/2000/svg"><g fill="#212121"><path d="m6 2.5c0-.27614.22386-.5.5-.5h3c.27614 0 .5.22386.5.5v1.5h2.5c.2761 0 .5.22386.5.5v3.52173l1.1988.51948c.1295.05611.2293.16435.2746.29799.0454.13364.0322.28023-.0363.40361l-1.1448 2.06069c-.1554-.2836-.3511-.5774-.745-.7182l.7477-1.34588-4.69859-2.03604c-.38051-.16489-.81231-.16489-1.19282 0l-4.69859 2.03604.7477 1.34588c-.39389.1408-.58961.4346-.74497.7182l-1.14481-2.06069c-.06854-.12338-.08175-.26997-.03636-.40361s.14514-.24188.27464-.29799l1.1988-.51948v-3.52173c0-.27614.22386-.5.5-.5h2.5zm-2 5.0884 3.00599-1.30258c.63418-.27481 1.35384-.27481 1.98802 0l3.00599 1.30258v-2.5884h-8zm5-4.5884h-2v1h2z"/><path d="m3.60164 11.6976c-.01215.016-.0234.0329-.03366.0505-.02343.0402-.04168.0833-.05995.1265-.01679.0397-.0336.0794-.05448.117-.06019.1083-.15857.2563-.3071.4049-.28755.2875-.78773.6035-1.64645.6035-.27614 0-.5.2239-.5.5 0 .2762.22386.5.5.5 1.14128 0 1.8911-.434 2.35355-.8964.04352-.0436.08428-.0871.12241-.1303.0246.0321.05036.0645.07732.0968.37673.4521 1.00606.9299 1.94661.9299s1.56989-.4778 1.94661-.9299c.01835-.022.03614-.044.05339-.0659.01725.0219.03504.0439.05339.0659.37673.4521 1.00606.9299 1.94661.9299.94051 0 1.56991-.4778 1.94661-.9299.027-.0324.0528-.0647.0774-.0969.0382.0432.079.0868.1225.1304.4625.4624 1.2123.8964 2.3536.8964.2761 0 .5-.2238.5-.5 0-.2761-.2239-.5-.5-.5-.8587 0-1.3589-.316-1.6464-.6035-.2593-.2593-.3677-.5245-.3798-.5563-.0327-.0878-.0821-.1652-.1548-.2253-.0889-.0735-.2019-.1151-.3192-.115-.0743 0-.1467.0166-.2123.0475-.0382.0178-.0732.0401-.1047.0659-.07.0573-.1253.1343-.1564.2262-.0211.0586-.0474.1156-.0753.1713-.0577.1155-.1471.2683-.2728.4191-.2483.2979-.619.5701-1.17841.5701-.55945 0-.93011-.2722-1.17839-.5701-.12568-.1508-.2151-.3036-.27283-.4191-.04284-.0857-.06664-.1478-.07336-.1661-.02731-.0758-.06792-.1446-.122-.1985-.04731-.0474-.10481-.0858-.1706-.1116-.0576-.0226-.11956-.0347-.18282-.0347s-.12522.0121-.18282.0347c-.0659.0258-.12347.0644-.17083.1118-.05397.0539-.0945.1226-.12177.1983-.00671.0183-.03052.0804-.07335.1661-.05774.1155-.14716.2683-.27284.4191-.24827.2979-.61894.5701-1.17839.5701s-.93011-.2722-1.17839-.5701c-.12568-.1508-.2151-.3036-.27283-.4191-.0184-.0368-.03373-.0754-.04907-.1141-.02011-.0506-.04022-.1013-.06727-.1479-.01085-.0187-.02281-.0365-.03577-.0534-.05868-.0765-.14008-.1369-.23845-.1697l-.00509-.0017c-.09783-.0316-.20624-.0333-.31124.0017-.09932.0331-.18134.0943-.24014.1719z"/></g></svg>