<?xml version="1.0"?>
<svg width="547.6" height="672.41" xmlns="http://www.w3.org/2000/svg" xmlns:svg="http://www.w3.org/2000/svg" version="1.1">
 <metadata>image/svg+xmlOpenclipartRIP2012-07-30T13:03:10Tombstone RIP - Pierre tombale RIPhttp://openclipart.org/detail/171351/rip-by-cyberscooty-171351cyberscootyRIPRest in Peaceclip artclipartdeaddeathfuneralfunérairehalloweenmortpierrepierre tombalereligiontombaltombstone</metadata>
 <g class="layer">
  <title>Layer 1</title>
  <path d="m62.09,601.57l-53.54,-36.63l22.14,54.34l-30.19,-16.5l32.61,40.66l-27.78,-12.48s16.08,29.14 30.19,35.83c8.73,4.13 19.47,2.06 28.98,0.4c14.27,-2.49 26.28,-17.02 40.66,-15.3c10.64,1.28 16.35,14.87 26.57,18.12c7.42,2.35 15.87,2.57 23.35,0.4c5.86,-1.7 9.29,-8.94 15.29,-10.07c7.56,-1.41 15.1,6.73 22.55,4.83c7.19,-1.82 9.48,-14.22 16.9,-14.49c9.68,-0.34 14.05,14.61 23.35,17.31c5.3,1.54 11.36,0.8 16.5,-1.21c9.26,-3.6 13.68,-16.24 23.35,-18.51c4.41,-1.04 8.91,1.64 13.28,2.81c6.27,1.69 12.15,7.28 18.52,6.04c8.6,-1.67 11.86,-14.02 20.13,-16.9c4.69,-1.64 10.02,-0.56 14.89,0.4c15.34,3 28.29,17.5 43.88,16.5c7.43,-0.47 12.4,-9.15 19.72,-10.46c8,-1.44 16.26,1.33 24.16,3.22c10.65,2.55 20.17,12.54 30.99,10.87c7.3,-1.13 10.35,-13.81 17.72,-13.29c7.94,0.57 9.83,13.22 16.9,16.91c7.49,3.9 17.55,8.48 24.96,4.43c8.28,-4.54 6.57,-17.76 10.87,-26.17c5.01,-9.81 14.6,-17.49 17.31,-28.18c1.81,-7.16 -0.07,-14.83 -1.21,-22.14c-2.05,-13.15 -10.06,-38.64 -10.06,-38.64l-0.41,40.66s-11.94,-13.54 -15.29,-21.74c-3.45,-8.43 0.71,-19.45 -4.43,-26.97c-14.25,-20.86 -65.21,-38.64 -65.21,-38.64l-387.65,94.59z" id="path3762" stroke="#000" stroke-width="1px"/>
  <path d="m64.29,150.37c-12.95,-6.38 42.57,-5.13 46.72,-19.36c4.69,-16.13 -30.03,-22.71 -25.39,-27.76c56.9,-62.04 203.87,-177.79 388.89,-8.89l2.08,31.91l15.26,19.43l15.26,53.41l-0.69,130.42l-11.8,31.91l13.18,15.27l0,196.32" fill="none" id="path3784" stroke="#000" stroke-linecap="square" stroke-miterlimit="36" stroke-width="13.1"/>
  <path d="m56.05,634.98l-9.66,-313.98l31.8,-4.83l-28.18,-17.31l0.41,-99.83s7.74,-21.54 8.87,-22.68c1.14,-1.14 -1.42,-25.62 -1.42,-25.62l35.58,-3.13l-12.52,-39.56c171.51,-171.43 325.13,-80.09 389.95,-8.53l1.14,28.18l17.07,17.07l15.94,52.66l-1.42,130.93l-11.95,32.45l13.66,13.38l-1.71,235.4l-29.89,29.89l-417.67,-4.49z" fill="#e5e5e5" id="path2987" stroke="#000" stroke-linejoin="bevel" stroke-width="6"/>
  <path d="m341.34,23.05l85.05,78.97l10.46,28.98l27.37,63.6l2.42,145.72l-11.15,24.37l12.88,21.74l0.81,252.8" fill="none" id="path3757" stroke="#000" stroke-width="13.1"/>
  <path d="m323.87,15.31s-13.29,25.55 -28.71,32.77c-23.46,4.8 -52.07,1.37 -79.7,2.41c-10.25,0.39 -24.75,-1.33 -34.22,4.03c-10.23,5.79 -17.3,26.57 -17.3,26.57s14.4,-18.9 24.95,-22.95c12.28,-4.71 39.45,0.4 39.45,0.4l-27.37,30.6s-14.11,21.94 -18.52,22.94c-7.02,1.6 -30.13,-2.36 -38.64,-2.82c-9.52,4.58 -20.13,12.88 -20.13,12.88l26.57,-6.44l16.91,5.64s-15.86,14.78 -20.94,24.15c-4.65,8.59 -8.05,28.18 -8.05,28.18s8.66,-19.9 14.5,-28.98c5.77,-8.99 20.12,-24.96 20.12,-24.96s10.14,0.54 14.5,-1.61c7.99,-3.95 18.51,-19.32 18.51,-19.32s1.44,20.08 5.64,28.98c5.94,12.59 26.57,32.2 26.57,32.2l4.83,21.74l0.8,-29.79l18.52,0.81l-33.01,-12.08c-12.05,-11.34 -16.11,-30 -15.3,-53.13c0,0 19.44,-6.94 24.96,-16.51c1.88,-3.26 4.03,-9.26 4.03,-9.26s43.43,-0.41 59.57,-4.83c12.53,-8.85 41.9,-36.91 41.9,-36.91l-20.44,-4.71z" id="path3760" stroke="#000" stroke-width="1px"/>
  <path d="m63.84,636.49c1.05,-1.73 20.12,-46.13 20.12,-46.13l4.16,24.28l12.14,-9.37l2.09,31.57l-38.51,-0.35z" id="path3776" stroke="#000" stroke-width="1px"/>
  <path d="m238.31,636.14c1.04,-3.12 11.1,-41.27 11.1,-41.27l9.02,44.39l-20.12,-3.12z" id="path3778" stroke="#000" stroke-width="1px"/>
  <path d="m312.86,636.63l40.72,-64.18l6.63,51.35l20.83,-23.89l8.66,19.78l12.47,3.13l37.25,3.87l26.24,-26.48l3.26,39.97l-156.06,-3.55z" id="path3780" stroke="#000" stroke-width="1px"/>
  <path d="m167.21,642.39l10.48,-66.64l18.66,62.48l-29.14,4.16z" id="path3782" stroke="#000" stroke-width="1px"/>
 </g>
</svg>